<?xml version="1.0" standalone="no"?>
<!DOCTYPE svg PUBLIC "-//W3C//DTD SVG 1.1//EN" "http://www.w3.org/Graphics/SVG/1.1/DTD/svg11.dtd">
<svg xmlns="http://www.w3.org/2000/svg">
<metadata>Generated by Fontastic.me</metadata>
<defs>
<font id="untitled-font-1" horiz-adv-x="512">
<font-face font-family="untitled-font-1" units-per-em="512" ascent="480" descent="-32"/>
<missing-glyph horiz-adv-x="512" />

<glyph glyph-name="activity" unicode="&#97;" d="M200 381l94-300c4-15 24-16 30-2l70 161 75 0c9 0 16 7 16 16 0 9-7 16-16 16l-85 0c-6 0-12-4-15-10l-57-131-94 300c-4 15-24 16-30 2l-70-161-75 0c-9 0-16-7-16-16 0-9 7-16 16-16l85 0c6 0 12 4 15 10z"/>
<glyph glyph-name="airplane" unicode="&#98;" d="M174 192l-153 52c-13 5-14 24-1 30l458 215c1 0 1 0 2 1 5 1 10 1 13-1 2-1 3-2 4-4 4-3 5-8 4-13 0 0 0 0 0 0 0 0 0-1 0-1l-77-379c-2-11-13-16-23-11l-114 57c0-1 0-2-1-2l-94-89c-10-10-28-2-27 13z m83-39l-51 25-6-79z m-70 69l211 194-329-154z m273 207l-241-222 178-88z"/>
<glyph glyph-name="alignment" unicode="&#99;" d="M149 384l-128 0c-11 0-21 10-21 21 0 12 10 22 21 22l367 0c8 25 32 42 60 42 35 0 64-28 64-64 0-35-29-64-64-64-28 0-52 18-60 43l-196 0 0-192c0-35 29-64 64-64l132 0c8 25 32 43 60 43 35 0 64-29 64-64 0-36-29-64-64-64-28 0-52 17-60 42l-132 0c-59 0-107 48-107 107z"/>
<glyph glyph-name="archive" unicode="&#100;" d="M64 363l384 0 0-299c0-12-10-21-21-21l-342 0c-11 0-21 9-21 21z m128-43c-12 0-21-10-21-21 0-12 9-22 21-22l128 0c12 0 21 10 21 22 0 11-9 21-21 21z m64-149l0-86 149 0 0 86z m-213 298l426 0c12 0 22-9 22-21l0-43c0-11-10-21-22-21l-426 0c-12 0-22 10-22 21l0 43c0 12 10 21 22 21z"/>
<glyph glyph-name="archive-outline" unicode="&#101;" d="M43 379l426 0c3 0 6 2 6 5l0 64c0 3-3 5-6 5l-426 0c-3 0-6-2-6-5l0-64c0-3 3-5 6-5z m421-32l0-283c0-21-17-37-37-37l-342 0c-20 0-37 16-37 37l0 283-5 0c-21 0-38 16-38 37l0 64c0 21 17 37 38 37l426 0c21 0 38-16 38-37l0-64c0-21-17-37-38-37z m-384 0l0-283c0-3 2-5 5-5l342 0c3 0 5 2 5 5l0 283z m123-11l106 0c27 0 48-21 48-48 0-27-21-48-48-48l-106 0c-27 0-48 21-48 48 0 27 21 48 48 48z m0-32c-9 0-16-7-16-16 0-9 7-16 16-16l106 0c9 0 16 7 16 16 0 9-7 16-16 16z m16-117l181 0 0-96-181 0z m32-32l0-32 117 0 0 32z"/>
<glyph glyph-name="bell" unicode="&#102;" d="M69 73c-14 0-26 12-26 28l0 14c0 8 2 17 7 23l35 45 0 153c0 97 77 176 171 176l11 0c88 0 160-74 160-165l0-129c0-23 7-45 21-63l14-17c5-6 7-15 7-23l0-14c0-16-12-28-26-28l-116 0 0-9c0-35-29-64-64-64l-14 0c-35 0-64 29-64 64l0 9z"/>
<glyph glyph-name="bell-outline" unicode="&#103;" d="M192 99c8 0 15-7 15-15l0-9c0-25 20-45 45-45l13 0c25 0 45 20 45 45l0 9c0 8 7 15 15 15l109 0c6 0 10 5 10 11l0 13c0 5-1 9-4 13l-13 16c-15 19-23 43-23 68l0 122c0 77-61 140-135 140l-10 0c-81 0-146-67-146-150l0-145c0-3-1-6-3-9l-33-42c-3-4-4-8-4-13l0-13c0-6 4-11 10-11z m-109-30c-22 0-40 18-40 41l0 13c0 12 3 22 10 31l30 38 0 140c0 99 78 180 176 180l10 0c91 0 165-76 165-170l0-122c0-18 6-35 17-49l13-17c7-9 10-19 10-31l0-13c0-23-18-41-40-41l-94 0c-3-39-35-69-75-69l-13 0c-40 0-72 30-75 69z"/>
<glyph glyph-name="blocks" unicode="&#104;" d="M43 213l170 0c12 0 22-9 22-21l0-171c0-11-10-21-22-21l-170 0c-12 0-22 10-22 21l0 171c0 12 10 21 22 21z m256 43l170 0c12 0 22-10 22-21l0-171c0-12-10-21-22-21l-170 0c-12 0-22 9-22 21l0 171c0 11 10 21 22 21z m-193 185l165 44c11 3 23-4 26-15l44-165c3-11-4-23-15-26l-165-44c-11-3-23 4-26 15l-44 165c-3 11 4 23 15 26z"/>
<glyph glyph-name="blocks-outline" unicode="&#105;" d="M43 218l170 0c12 0 22-9 22-21l0-171c0-12-10-21-22-21l-170 0c-12 0-22 9-22 21l0 171c0 12 10 21 22 21z m10-32l0-149 150 0 0 149z m246 75l170 0c12 0 22-10 22-22l0-170c0-12-10-22-22-22l-170 0c-12 0-22 10-22 22l0 170c0 12 10 22 22 22z m10-182l150 0 0 150-150 0z m-203 367l165 44c11 3 23-4 26-15l44-165c3-11-4-23-15-26l-165-44c-11-3-23 3-26 15l-44 165c-3 11 4 23 15 26z m19-28l38-145 144 39-38 144z"/>
<glyph glyph-name="briefcase" unicode="&#106;" d="M512 219l-214 0c-2 9-11 16-21 16l-42 0c-10 0-19-7-21-16l-214 0 0 165c0 24 19 43 43 43l85 0 0 42c0 24 19 43 43 43l170 0c24 0 43-19 43-43l0-42 85 0c24 0 43-19 43-43z m0-32l0-102c0-23-19-42-43-42l-426 0c-24 0-43 19-43 42l0 102 213 0 0-16c0-12 10-22 22-22l42 0c12 0 22 10 22 22l0 16z m-352 240l192 0 0 42c0 6-5 11-11 11l-170 0c-6 0-11-5-11-11z"/>
<glyph glyph-name="briefcase-add" unicode="&#107;" d="M446 446l46 0c11 0 20-8 20-19 0-11-9-20-20-20l-46 0 0-46c0-11-8-20-19-20-11 0-20 9-20 20l0 46-46 0c-11 0-20 9-20 20 0 11 9 19 20 19l46 0 0 46c0 11 9 20 20 20 11 0 19-9 19-20z m-41-297l-169 0c-2 8-9 13-16 13l-34 0c-8 0-15-5-17-13l-169 0 0 133c0 18 15 34 34 34l67 0 0 34c0 19 15 34 34 34l135 0c19 0 34-15 34-34l0-34 68 0c18 0 33-16 33-34z m0-21l0-75c0-18-15-32-33-32l-338 0c-19 0-34 14-34 32l0 75 169 0 0-12c0-9 7-16 17-16l34 0c9 0 16 7 16 16l0 12z m-277 192l149 0 0 34c0 5-3 9-8 9l-133 0c-4 0-8-4-8-9z"/>
<glyph glyph-name="briefcase-add-outline" unicode="&#108;" d="M380 144l0 135c0 5-4 9-8 9l-338 0c-5 0-9-4-9-9l0-135 144 0c2 8 9 13 17 13l34 0c7 0 14-5 16-13z m0-26l-144 0 0-13c0-10-7-18-16-18l-34 0c-10 0-17 8-17 18l0 13-144 0 0-83c0-5 4-9 9-9l338 0c4 0 8 4 8 9z m-253 196l152 0 0 35c0 5-4 9-9 9l-135 0c-5 0-8-4-8-9z m177 0l68 0c18 0 33-15 33-35l0-244c0-19-15-35-33-35l-338 0c-19 0-34 16-34 35l0 244c0 20 15 35 34 35l67 0 0 35c0 19 15 35 34 35l135 0c19 0 34-16 34-35z m142 132l46 0c11 0 20-8 20-19 0-11-9-20-20-20l-46 0 0-46c0-11-8-20-19-20-11 0-20 9-20 20l0 46-46 0c-11 0-20 9-20 20 0 11 9 19 20 19l46 0 0 46c0 11 9 20 20 20 11 0 19-9 19-20z"/>
<glyph glyph-name="briefcase-outline" unicode="&#109;" d="M480 219l0 165c0 6-5 11-11 11l-426 0c-6 0-11-5-11-11l0-165 182 0c2 9 11 16 21 16l42 0c10 0 19-7 21-16z m0-32l-181 0 0-16c0-12-10-22-22-22l-42 0c-12 0-22 10-22 22l0 16-181 0 0-102c0-6 5-10 11-10l426 0c6 0 11 4 11 10z m-320 240l192 0 0 42c0 6-5 11-11 11l-170 0c-6 0-11-5-11-11z m224 0l85 0c24 0 43-19 43-43l0-299c0-23-19-42-43-42l-426 0c-24 0-43 19-43 42l0 299c0 24 19 43 43 43l85 0 0 42c0 24 19 43 43 43l170 0c24 0 43-19 43-43z"/>
<glyph glyph-name="calendar-fill" unicode="&#110;" d="M160 326l0-64 77 0 0 64z m-38 0l-84 0 0-64 84 0z m38-102l0-64 77 0 0 64z m-38 0l-84 0 0-64 84 0z m38-102l0-84 77 0 0 84z m-38 0l-84 0 0-84 84 0z m230 204l-77 0 0-64 77 0z m38 0l0-64 84 0 0 64z m-38-102l-77 0 0-64 77 0z m38 0l0-64 84 0 0 64z m-38-102l-77 0 0-84 77 0z m38 0l0-84 84 0 0 84z m-390 390l512 0 0-512-512 0z m81-58l0-50c0-4 0-7-2-9-2-2-4-3-7-3-3 0-6 1-7 3-2 1-2 4-2 8l-15 0c0-8 2-13 6-17 4-4 10-6 18-6 5 0 9 1 13 3 3 2 6 5 8 8 2 4 3 8 3 13l0 50z m83 0l-15 0 0-48c0-9-4-14-13-14-4 0-7 1-9 3-2 3-3 6-3 11l0 48-15 0 0-49c0-7 2-14 7-18 5-5 12-7 20-7 9 0 16 2 21 7 5 5 7 11 7 19z m72-73l0 73-15 0 0-48-29 48-15 0 0-73 15 0 0 48 29-48z"/>
<glyph glyph-name="calendar-outline" unicode="&#111;" d="M176 315l0-54 64 0 0 54z m-32 0l-69 0 0-54 69 0z m32-86l0-53 64 0 0 53z m-32 0l-69 0 0-53 69 0z m32-85l0-69 64 0 0 69z m-32 0l-69 0 0-69 69 0z m192 171l-64 0 0-54 64 0z m32 0l0-54 69 0 0 54z m-32-86l-64 0 0-53 64 0z m32 0l0-53 69 0 0 53z m-32-85l-64 0 0-69 64 0z m32 0l0-69 69 0 0 69z m-293 203l362 0 0 90-362 0z m-32 122l426 0 0-426-426 0z"/>
<glyph glyph-name="chat" unicode="&#112;" d="M256 27c-141 0-256 109-256 242 0 134 115 243 256 243 141 0 256-109 256-243 0-46-14-92-41-131 5-58 19-102 39-123 2-2 3-7 1-10-1-3-4-5-8-5 0 0 0 0-1 0-3 1-83 13-142 48-33-14-68-21-104-21z m128 293c-24 0-43-19-43-43 0-23 19-42 43-42 24 0 43 19 43 42 0 24-19 43-43 43z m-128 0c-24 0-43-19-43-43 0-23 19-42 43-42 24 0 43 19 43 42 0 24-19 43-43 43z m-128 0c-24 0-43-19-43-43 0-23 19-42 43-42 24 0 43 19 43 42 0 24-19 43-43 43z"/>
<glyph glyph-name="chat-outline" unicode="&#113;" d="M376 316c23 0 41-18 41-40 0-22-18-40-41-40-22 0-40 18-40 40 0 22 18 40 40 40z m-120 0c22 0 40-18 40-40 0-22-18-40-40-40-22 0-40 18-40 40 0 22 18 40 40 40z m-120 0c22 0 40-18 40-40 0-22-18-40-40-40-23 0-41 18-41 40 0 22 18 40 41 40z m120-291c-141 0-256 109-256 244 0 134 115 243 256 243 141 0 256-109 256-243 0-46-13-89-38-128 5-49 16-85 32-101 6-7 8-18 4-27-4-8-12-13-21-13 0 0 0 0-1 0-1 0-1 0-2 0-12 2-29 5-50 11-30 8-59 19-83 33-31-13-63-19-97-19z m188 119c-1 3 0 7 2 10 24 34 36 74 36 115 0 117-101 213-226 213-125 0-226-96-226-213 0-118 101-214 226-214 32 0 63 7 92 19 5 2 10 2 14-1 23-14 51-25 82-33 11-3 21-5 29-7-15 25-25 63-29 111z"/>
<glyph glyph-name="check" unicode="&#114;" d="M63 172c-13 12-33 10-45-4-11-13-9-33 4-45l124-105c15-12 36-9 47 6l302 427c11 14 7 34-7 44-15 11-35 7-45-7l-282-398z"/>
<glyph glyph-name="check-fill" unicode="&#115;" d="M256 21c-130 0-235 105-235 235 0 130 105 235 235 235 130 0 235-105 235-235 0-130-105-235-235-235z m92 330l-142-155-38 41c-7 8-21 9-30 2-9-7-11-20-3-28l54-59c9-9 25-9 34 0l158 174c8 8 6 21-3 28-9 7-23 6-30-3z"/>
<glyph glyph-name="check-outline" unicode="&#116;" d="M324 332c6 6 16 7 22 2 7-6 8-16 2-23l-116-139c-6-7-18-7-25 0l-39 47c-6 7-5 17 2 23 6 5 16 4 22-2l28-33z m-68-257c100 0 181 81 181 181 0 100-81 181-181 181-100 0-181-81-181-181 0-100 81-181 181-181z m0-32c-118 0-213 95-213 213 0 118 95 213 213 213 118 0 213-95 213-213 0-118-95-213-213-213z"/>
<glyph glyph-name="chronometer" unicode="&#117;" d="M272 426c110-8 197-100 197-213 0-117-95-213-213-213-118 0-213 96-213 213 0 51 18 98 47 135l-9 9c-5 5-5 11 0 16l22 22c4 4 11 4 15 0l11-10c31 23 70 38 111 41l0 38-69 0c-9 0-16 7-16 16 0 9 7 16 16 16l170 0c9 0 16-7 16-16 0-9-7-16-16-16l-69 0z m-16-394c100 0 181 81 181 181 0 100-81 182-181 182-100 0-181-82-181-182 0-100 81-181 181-181z m16 197l91 0c9 0 16-7 16-16 0-9-7-16-16-16l-107 0c-9 0-16 7-16 16l0 107c0 9 7 16 16 16 9 0 16-7 16-16z"/>
<glyph glyph-name="clip-bent" unicode="&#118;" d="M448 313l-215-215c-37-38-98-38-135 0-38 37-38 98 0 135l203 204c25 25 66 25 91 0 25-25 25-66 0-90l-204-204c-12-13-33-13-45 0-13 12-13 33 0 45l170 170c6 6 6 16 0 22-7 7-17 7-23 0l-170-169c-25-25-25-66 0-91 25-25 66-25 91 0l203 204c38 37 38 98 0 136-37 37-98 37-135 0l-215-215c-39-51-35-124 11-170 46-46 119-50 170-11l226 226c6 6 6 16 0 23-6 6-16 6-23 0z"/>
<glyph glyph-name="clip-straight" unicode="&#119;" d="M352 432l0-304c0-53-43-96-96-96-53 0-96 43-96 96l0 288c0 35 29 64 64 64 35 0 64-29 64-64l0-288c0-18-14-32-32-32-18 0-32 14-32 32l0 240c0 9-7 16-16 16-9 0-16-7-16-16l0-240c0-35 29-64 64-64 35 0 64 29 64 64l0 288c0 53-43 96-96 96-53 0-96-43-96-96l0-304c8-63 63-112 128-112 65 0 120 49 128 112l0 320c0 9-7 16-16 16-9 0-16-7-16-16z"/>
<glyph glyph-name="company" unicode="&#120;" d="M427 64l53 0c9 0 16-7 16-16 0-9-7-16-16-16l-448 0c-9 0-16 7-16 16 0 9 7 16 16 16l53 0 0 405c0 12 10 22 22 22l298 0c12 0 22-10 22-22z m-256 0l170 0 0 96c0 6-4 11-10 11l-150 0c-6 0-10-5-10-11z m-32 235c-6 0-11-5-11-11l0-64c0-6 5-11 11-11l85 0c6 0 11 5 11 11l0 64c0 6-5 11-11 11z m0 149c-6 0-11-5-11-11l0-64c0-6 5-10 11-10l85 0c6 0 11 4 11 10l0 64c0 6-5 11-11 11z m149-149c-6 0-11-5-11-11l0-64c0-6 5-11 11-11l85 0c6 0 11 5 11 11l0 64c0 6-5 11-11 11z m0 149c-6 0-11-5-11-11l0-64c0-6 5-10 11-10l85 0c6 0 11 4 11 10l0 64c0 6-5 11-11 11z"/>
<glyph glyph-name="company-outline" unicode="&#121;" d="M155 43l0 80c0 14 12 26 26 26l150 0c14 0 26-12 26-26l0-80 75 0 0 426c0 3-2 6-5 6l-342 0c-3 0-5-3-5-6l0-426z m309 0l16 0c9 0 16-7 16-16 0-9-7-16-16-16l-448 0c-9 0-16 7-16 16 0 9 7 16 16 16l16 0 0 426c0 21 17 38 37 38l342 0c20 0 37-17 37-38z m-277 74l0-74 138 0 0 74z m-48 160l64 0c14 0 26-12 26-26l0-43c0-15-12-27-26-27l-64 0c-15 0-27 12-27 27l0 43c0 14 12 26 27 26z m5-32l0-32 53 0 0 32z m-5 182l64 0c14 0 26-12 26-27l0-43c0-14-12-26-26-26l-64 0c-15 0-27 12-27 26l0 43c0 15 12 27 27 27z m5-32l0-32 53 0 0 32z m165-118l64 0c15 0 27-12 27-26l0-43c0-15-12-27-27-27l-64 0c-14 0-26 12-26 27l0 43c0 14 12 26 26 26z m6-32l0-32 53 0 0 32z m-6 182l64 0c15 0 27-12 27-27l0-43c0-14-12-26-27-26l-64 0c-14 0-26 12-26 26l0 43c0 15 12 27 26 27z m6-32l0-32 53 0 0 32z"/>
<glyph glyph-name="conquered" unicode="&#122;" d="M256 128c51 0 97 20 131 51l47-81c3-5 1-11-4-14-2-1-3-1-5-2l-64-4-36-53c-3-5-10-7-15-3-1 1-2 2-3 3l-51 89-51-89c-3-5-9-7-15-4-1 1-2 2-3 4l-36 53-64 4c-6 1-10 6-10 12 0 1 1 3 1 4l47 81c34-31 80-51 131-51z m0 21c-94 0-171 77-171 171 0 94 77 171 171 171 94 0 171-77 171-171 0-94-77-171-171-171z"/>
<glyph glyph-name="conquered-outline" unicode="&#65;" d="M86 66c-15 1-26 14-25 29 0 4 1 8 3 11l57 99 15-14c32-30 75-47 120-47 45 0 88 17 120 47l15 14 57-99c7-12 3-29-10-36-4-2-8-3-12-4l-56-3-32-47c-8-12-24-16-37-8-3 3-6 6-8 9l-37 65-37-65c-7-12-24-17-37-9-3 2-6 4-8 8l-32 47z m231-25l35 53 64 4-33 57c-31-24-69-39-108-42z m-188 114l-33-57 64-4 35-53 42 72c-39 3-77 18-108 42z m127 16c-94 0-171 76-171 170 0 95 77 171 171 171 94 0 171-76 171-171 0-94-77-170-171-170z m0 32c77 0 139 62 139 138 0 77-62 139-139 139-77 0-139-62-139-139 0-76 62-138 139-138z"/>
<glyph glyph-name="credit-card" unicode="&#66;" d="M117 142c8-8 20-14 32-14 24 0 43 19 43 43 0 23-19 42-43 42-12 0-24-5-32-14-7 9-19 14-32 14-23 0-42-19-42-42 0-24 19-43 42-43 13 0 25 6 32 14z m395 221l-512 0 0 21c0 24 19 43 43 43l426 0c24 0 43-19 43-43z m0-64l0-171c0-24-19-43-43-43l-426 0c-24 0-43 19-43 43l0 171z m-235-107c-11 0-21-10-21-21 0-12 10-22 21-22l171 0c12 0 21 10 21 22 0 11-9 21-21 21z"/>
<glyph glyph-name="credit-card-outline" unicode="&#67;" d="M149 217c9 8 20 12 32 12 27 0 48-21 48-48 0-26-21-48-48-48-12 0-23 5-32 13-8-8-19-13-32-13-26 0-48 22-48 48 0 27 22 48 48 48 13 0 24-4 32-12z m326 162l0 5c0 15-12 27-27 27l-384 0c-15 0-27-12-27-27l0-5z m0-96l-438 0 0-155c0-15 12-27 27-27l384 0c15 0 27 12 27 27z m-411 160l384 0c32 0 59-27 59-59l0-256c0-32-27-59-59-59l-384 0c-32 0-59 27-59 59l0 256c0 32 27 59 59 59z m-27-96l0-32 438 0 0 32z m262-118l106 0c21 0 38-16 38-37l0-21c0-21-17-38-38-38l-106 0c-21 0-38 17-38 38l0 21c0 21 17 37 38 37z m0-32c-3 0-6-2-6-5l0-21c0-3 3-6 6-6l106 0c3 0 6 3 6 6l0 21c0 3-3 5-6 5z m-118-32c9 0 16 7 16 16 0 9-7 16-16 16-9 0-16-7-16-16 0-9 7-16 16-16z m-64 0c9 0 16 7 16 16 0 9-7 16-16 16-9 0-16-7-16-16 0-9 7-16 16-16z"/>
<glyph glyph-name="cross" unicode="&#68;" d="M256 301l201 202c13 12 33 12 46 0 12-13 12-33 0-46l-202-201 202-201c12-13 12-33 0-46-13-12-33-12-46 0l-201 202-201-202c-13-12-33-12-46 0-12 13-12 33 0 46l202 201-202 201c-12 13-12 33 0 46 13 12 33 12 46 0z"/>
<glyph glyph-name="description" unicode="&#69;" d="M139 80l0 32z m0 32c21 0 21-32 0-32l-96 0c-22 0-22 32 0 32l192 0c21 0 21-32 0-32l-96 0c-22 0-22 32 0 32z m117 288l0 32z m0 32c21 0 21-32 0-32l-213 0c-22 0-22 32 0 32l426 0c22 0 22-32 0-32l-213 0c-21 0-21 32 0 32z m-43-139l0 32z m0 32c22 0 22-32 0-32l-170 0c-22 0-22 32 0 32l341 0c21 0 21-32 0-32l-171 0c-21 0-21 32 0 32z m-42-138l0 32z m0 32c21 0 21-32 0-32l-128 0c-22 0-22 32 0 32l256 0c21 0 21-32 0-32l-128 0c-22 0-22 32 0 32z"/>
<glyph glyph-name="document" unicode="&#70;" d="M299 491l0-150 149 0 0-277c0-24-19-43-43-43l-298 0c-24 0-43 19-43 43l0 384c0 24 19 43 43 43z m26-5l118-118-118 0z"/>
<glyph glyph-name="document-outline" unicode="&#71;" d="M336 452l0-73 73 0z m96-105l-128 0 0 128-197 0c-15 0-27-12-27-27l0-384c0-15 12-27 27-27l298 0c15 0 27 12 27 27z m32-283c0-32-26-59-59-59l-298 0c-33 0-59 27-59 59l0 384c0 32 26 59 59 59l220 0 137-138z"/>
<glyph glyph-name="dot" unicode="&#72;" d="M384 256c0-71-57-128-128-128-71 0-128 57-128 128 0 71 57 128 128 128 71 0 128-57 128-128z"/>
<glyph glyph-name="dot-outline" unicode="&#73;" d="M256 128c71 0 128 57 128 128 0 71-57 128-128 128-71 0-128-57-128-128 0-71 57-128 128-128z m0 32c-53 0-96 43-96 96 0 53 43 96 96 96 53 0 96-43 96-96 0-53-43-96-96-96z"/>
<glyph glyph-name="down" unicode="&#74;" d="M256 245l152 144c24 22 62 22 86 0 24-23 24-59 0-82l-195-184c-24-22-62-22-86 0l-195 184c-24 23-24 59 0 82 24 22 62 22 86 0z"/>
<glyph glyph-name="download" unicode="&#75;" d="M272 55l58 58c6 6 16 6 23 0 6-6 6-16 0-23l-86-85c-6-6-16-6-22 0l-86 85c-6 7-6 17 0 23 7 6 17 6 23 0l58-58 0 256c0 8 7 16 16 16 9 0 16-8 16-16z m-80 160c0-9-7-16-16-16l-67 0c-48 0-88 40-88 89 0 50 40 90 88 90 2 0 4-1 6-1 12 35 44 60 82 60 6 0 11 0 16-1 20 36 58 61 102 61 65 0 117-53 117-119 0-2 0-4 0-6 34-12 59-45 59-84 0-49-40-89-88-89l-67 0c-9 0-16 7-16 16 0 8 7 16 16 16l67 0c31 0 56 25 56 57 0 25-16 46-38 54-13 5-22 18-21 31 0 3 0 4 0 6-1 48-39 86-85 86-31 0-59-17-74-45-7-12-20-18-34-16-4 1-7 1-10 1-23 0-44-15-52-38-5-14-18-23-32-22-3 0-3 0-4 1l-1 0c-30-1-55-26-55-58 0-32 26-57 56-57l67 0c9 0 16-8 16-16z"/>
<glyph glyph-name="email" unicode="&#76;" d="M450 398l-180-114c-8-5-20-5-28 0l-180 114c7 5 15 7 23 7l342 0c8 0 16-2 23-7z m18-26c1-3 1-6 1-9l0-214c0-23-19-42-42-42l-342 0c-23 0-42 19-42 42l0 214c0 3 0 6 1 9l181-115c19-12 43-12 62 0z"/>
<glyph glyph-name="email-outline" unicode="&#77;" d="M449 389c0 0-1 0-1 0l-384 0c0 0-1 0-1 0l178-124c9-7 21-7 30 0z m4-36l-163-114c-21-14-47-14-68 0l-163 114 0-225c0-3 2-5 5-5l384 0c3 0 5 2 5 5z m-389 68l384 0c21 0 37-16 37-37l0-256c0-21-16-37-37-37l-384 0c-21 0-37 16-37 37l0 256c0 21 16 37 37 37z"/>
<glyph glyph-name="eye" unicode="&#78;" d="M256 107c-94 0-180 49-256 149 76 100 162 149 256 149 94 0 180-49 256-149-76-100-162-149-256-149z m0 64c47 0 85 38 85 85 0 47-38 85-85 85-47 0-85-38-85-85 0-47 38-85 85-85z"/>
<glyph glyph-name="eye-hide" unicode="&#79;" d="M174 120l-87-87c-13-12-33-12-46 0-12 13-12 33 0 45l71 71c-39 25-76 61-112 107 76 100 162 149 256 149 33 0 64-6 94-17l84 83c12 12 32 12 45 0 12-13 12-33 0-46l-69-69c35-24 69-58 102-100-76-100-162-149-256-149-28 0-56 4-82 13z m55 55c8-3 17-4 27-4 47 0 85 38 85 85 0 10-1 19-4 27z m-49 42l115 115c-12 6-25 9-39 9-47 0-85-38-85-85 0-14 3-27 9-39z"/>
<glyph glyph-name="eye-hideoutline" unicode="&#80;" d="M395 365c41-25 80-61 117-109-76-100-162-149-256-149-34 0-67 6-99 19l-89-88c-8-8-21-8-30 0-8 9-8 22 0 30l79 79c-41 25-80 61-117 109 76 100 162 149 256 149 34 0 67-6 99-19l97 97c9 8 22 8 31 0 8-9 8-22 0-31z m-23-23l-42-43c7-12 11-27 11-43 0-47-38-85-85-85-16 0-31 4-43 11l-32-31c25-8 50-12 75-12 77 0 149 38 215 117-32 38-65 66-99 86z m-66-67l-69-69c6-2 12-3 19-3 29 0 53 24 53 53 0 7-1 13-3 19z m-166-105l42 43c-7 12-11 27-11 43 0 47 38 85 85 85 16 0 31-4 43-11l32 31c-25 8-50 12-75 12-77 0-149-38-215-117 32-38 65-66 99-86z m66 67l69 69c-6 2-12 3-19 3-29 0-53-24-53-53 0-7 1-13 3-19z"/>
<glyph glyph-name="eye-outline" unicode="&#81;" d="M256 373c-77 0-149-38-215-117 66-79 138-117 215-117 77 0 149 38 215 117-66 79-138 117-215 117z m0-266c-94 0-180 49-256 149 76 100 162 149 256 149 94 0 180-49 256-149-76-100-162-149-256-149z m0 96c29 0 53 24 53 53 0 29-24 53-53 53-29 0-53-24-53-53 0-29 24-53 53-53z m0-32c-47 0-85 38-85 85 0 47 38 85 85 85 47 0 85-38 85-85 0-47-38-85-85-85z"/>
<glyph glyph-name="face" unicode="&#82;" d="M256 21c-130 0-235 105-235 235 0 130 105 235 235 235 130 0 235-105 235-235 0-130-105-235-235-235z m107 278c23 0 42 19 42 42 0 24-19 43-42 43-24 0-43-19-43-43 0-23 19-42 43-42z m-214 0c24 0 43 19 43 42 0 24-19 43-43 43-23 0-42-19-42-43 0-23 19-42 42-42z m27-64c0-34 37-59 80-59 43 0 80 25 80 59 0 9-7 16-16 16-9 0-16-7-16-16 0-13-20-27-48-27-28 0-48 14-48 27 0 9-7 16-16 16-9 0-16-7-16-16z"/>
<glyph glyph-name="face-outline" unicode="&#83;" d="M256 5c-138 0-251 113-251 251 0 138 113 251 251 251 138 0 251-113 251-251 0-138-113-251-251-251z m0 32c121 0 219 98 219 219 0 121-98 219-219 219-121 0-219-98-219-219 0-121 98-219 219-219z m85 240c-23 0-42 19-42 43 0 24 19 43 42 43 24 0 43-19 43-43 0-24-19-43-43-43z m-170 0c-24 0-43 19-43 43 0 24 19 43 43 43 23 0 42-19 42-43 0-24-19-43-42-43z m0-42l170 0c0-36-38-64-85-64-47 0-85 28-85 64z"/>
<glyph glyph-name="flag" unicode="&#84;" d="M112 491c0 9 7 16 16 16 9 0 16-7 16-16l0-27 283 0c11 0 19-12 14-22l-71-90 71-90c5-10-3-22-14-22l-283 0 0-192 37 0c9 0 16-7 16-16 0-9-7-16-16-16l-106 0c-9 0-16 7-16 16 0 9 7 16 16 16l37 0z m294-219l-64 74c-2 4-2 8 0 12l61 74-259 0 0-160z"/>
<glyph glyph-name="funnel-close" unicode="&#85;" d="M347 229l0-128-42-62c-2-3-6-4-9-2-2 1-3 3-3 5l0 187-162 228c-3 4-4 8-4 12 0 12 9 22 21 22l344 0c4 0 9-2 12-4 10-7 12-20 5-30z m-267-16l67-66c10-11 10-27 0-38-11-10-27-10-38 0l-85 85c-11 11-11 28 0 38l85 86c11 10 27 10 38 0 10-11 10-28 0-38z"/>
<glyph glyph-name="funnel-close-outline" unicode="&#86;" d="M347 205l0-118-42-52c-3-2-7-3-9-1-2 2-3 4-3 5l0 166-141 193c-6 9-9 19-9 29 0 26 22 48 48 48l258 0c10 0 20-4 28-10 21-15 26-45 11-67z m-145 216l118-162 118 162z m-55-295c10-11 10-28 0-38-11-11-27-11-38 0l-85 85c-11 11-11 27 0 38l85 85c11 11 27 11 38 0 10-10 10-27 0-38l-67-66z"/>
<glyph glyph-name="funnel-open" unicode="&#87;" d="M220 229l0-128-42-62c-2-3-6-4-9-2-1 1-2 3-2 5l0 187-163 228c-3 4-4 8-4 12 0 12 10 22 21 22l344 0c5 0 9-2 12-4 10-7 12-20 5-30z m217-16l-67 67c-10 10-10 27 0 38 11 10 28 10 38 0l86-86c10-10 10-27 0-38l-86-85c-10-10-27-10-38 0-10 11-10 27 0 38z"/>
<glyph glyph-name="funnel-open-outline" unicode="&#88;" d="M203 205l0-118-42-52c-2-2-6-3-9-1-1 2-2 4-2 5l0 166-141 193c-6 9-9 19-9 29 0 26 21 48 48 48l258 0c10 0 20-4 28-10 21-15 26-45 10-67z m-145 216l119-162 118 162z m312-163c-10 11-10 28 0 38 11 11 28 11 38 0l86-85c10-11 10-27 0-38l-86-85c-10-11-27-11-38 0-10 10-10 27 0 38l67 66z"/>
<glyph glyph-name="gear" unicode="&#89;" d="M510 284c3-19 3-39 0-58-1-7-7-13-15-12l-3 0c-22 0-44-14-52-35-9-22-4-48 14-64 6-5 6-13 2-19-13-15-26-29-42-41-6-5-14-4-19 1-15 17-42 23-64 15-21-9-35-31-35-55 1-7-5-14-12-14-10-1-19-2-28-2-10 0-20 1-30 2-7 1-13 7-12 15 1 24-13 46-35 55-21 9-49 3-64-14-5-6-13-6-19-2-15 12-29 26-41 41-4 6-4 15 2 20 17 16 23 41 14 63-9 22-30 36-53 35-7 0-16 5-16 13-3 19-3 39 0 58 1 7 6 13 15 12 25 0 46 14 55 35 9 22 4 48-14 64-6 5-6 13-2 19 12 15 26 29 42 41 6 5 14 4 19-1 15-17 43-23 63-15 22 9 36 31 36 55-1 7 5 14 12 14 19 3 39 3 58 0 7-1 13-7 12-15-1-24 13-46 35-55 21-9 49-3 64 14 5 6 13 6 19 2 15-12 29-26 41-41 4-6 4-15-2-20-17-16-23-41-14-63 9-21 29-35 53-35 7 0 16-5 16-13z m-254-135c59 0 107 48 107 107 0 59-48 107-107 107-59 0-107-48-107-107 0-59 48-107 107-107z"/>
<glyph glyph-name="gear-outline" unicode="&#90;" d="M505 284l0 0c2-19 2-38 0-57-2-16-16-27-30-26l-3 0c-14 0-27-9-33-22-6-14-2-30 9-40 12-11 13-28 3-40-11-15-25-28-40-40-12-9-29-8-40 3-9 11-27 15-40 9-13-5-22-19-22-34 1-15-11-28-26-30-9-1-18-2-27-2-10 0-20 1-29 2-15 2-27 15-26 31 1 15-8 29-22 35-13 5-31 1-40-9-11-12-28-13-40-3-15 11-28 25-40 40-9 12-8 29 4 39 11 10 14 26 9 40-6 14-19 23-34 22-14 0-29 11-31 26-2 19-2 38 0 57 2 15 14 26 29 26 17 0 31 9 37 22 6 14 2 30-9 40-12 11-13 28-3 40 11 15 25 28 40 40 12 9 29 8 40-3 9-11 27-15 40-9 13 5 22 19 22 34-1 15 11 28 26 30 18 2 37 2 56 0 15-2 27-15 26-31-1-15 8-29 22-35 13-5 31-1 40 9 10 12 28 13 40 4 15-12 28-26 40-41 9-12 8-29-4-39-11-10-14-26-9-40 6-14 19-22 34-22 15 0 29-11 31-26z m-94 36c-11 25-5 54 15 74-9 11-20 22-31 31-19-19-50-26-75-15-25 10-42 36-41 64-15 1-30 1-44 0 0-28-17-53-42-63-25-10-56-4-74 15-12-9-22-20-32-31 20-19 26-49 15-75-10-24-35-40-63-41-2-16-2-32 0-47 0 2-1 2-1 2l0 0c27 1 53-16 63-42 11-25 5-54-15-74 9-11 20-22 31-31 19 19 50 26 75 15 25-10 42-36 41-64 8 0 15-1 23-1 7 0 14 1 21 1 0 28 17 53 42 63 25 10 56 4 74-15 12 9 22 20 32 31-20 19-26 49-15 75 10 25 35 41 63 41l1 0c1 15 1 30 0 45-28 0-53 16-63 42z m-155-165c-56 0-101 45-101 101 0 56 45 101 101 101 56 0 101-45 101-101 0-56-45-101-101-101z m0 32c38 0 69 31 69 69 0 38-31 69-69 69-38 0-69-31-69-69 0-38 31-69 69-69z"/>
<glyph glyph-name="history" unicode="&#48;" d="M70 202c0 1 0 3 0 5 0 9 7 16 16 16 7 0 14-6 15-13 25-94 122-150 216-124 94 25 149 121 124 215-25 94-121 150-215 125-54-15-95-52-116-99l49 13c9 3 17-3 20-11 2-9-3-17-12-20l-82-22c-9-2-17 3-20 12l-22 82c-2 9 3 17 12 20 8 2 17-3 19-12l11-41c26 52 72 92 132 108 111 30 225-36 255-147 30-111-36-225-147-254-111-30-225 36-255 147z m202 49l91 0c9 0 16-7 16-16 0-9-7-16-16-16l-107 0c-9 0-16 7-16 16l0 106c0 9 7 16 16 16 9 0 16-7 16-16z"/>
<glyph glyph-name="import" unicode="&#49;" d="M320 335c-9 0-16 7-16 16 0 9 7 16 16 16l85 0c9 0 16-7 16-16l0-299c0-8-7-16-16-16l-298 0c-9 0-16 8-16 16l0 299c0 9 7 16 16 16l85 0c9 0 16-7 16-16 0-9-7-16-16-16l-69 0 0-267 266 0 0 267z m-48-116l58 58c6 6 16 6 23 0 6-6 6-16 0-23l-86-85c-6-6-16-6-22 0l-86 85c-6 7-6 17 0 23 7 6 17 6 23 0l58-58 0 256c0 9 7 16 16 16 9 0 16-7 16-16z"/>
<glyph glyph-name="industry" unicode="&#50;" d="M55 368l84-57 0 40c0 12 9 21 21 21 4 0 8-1 12-4l84-57 0 40c0 12 10 21 21 21 5 0 9-1 12-4l84-57 0 158c0 12 10 22 22 22l74 0c12 0 22-10 22-22l0-426-470 0 0 308c0 12 10 21 22 21 4 0 8-1 12-4z m9-155l0-64 85 0 0 64z m149 0l0-64 86 0 0 64z m150 0l0-64 85 0 0 64z"/>
<glyph glyph-name="industry-outline" unicode="&#51;" d="M347 330l0 118c0 21 16 37 37 37l64 0c21 0 37-16 37-37l0-421-458 0 0 306c0 21 16 38 37 38 8 0 15-3 22-7l47-34 0 3c0 21 17 38 38 38 7 0 15-3 21-7l48-34 0 3c0 21 17 38 37 38 8 0 16-3 22-7z m106-271l0 389c0 3-2 5-5 5l-64 0c-3 0-5-2-5-5l0-180-99 70c0 0-2 1-3 1-3 0-5-3-5-6l0-65-98 70c-1 0-2 1-3 1-3 0-6-3-6-6l0-65-98 70c-1 0-2 1-3 1-3 0-5-3-5-6l0-274z m-368 154l86 0 0-64-86 0z m128 0l86 0 0-64-86 0z m128 0l86 0 0-64-86 0z"/>
<glyph glyph-name="kanban" unicode="&#52;" d="M43 512l426 0c24 0 43-19 43-43l0-426c0-24-19-43-43-43l-426 0c-24 0-43 19-43 43l0 426c0 24 19 43 43 43z m71-70c-11 0-21-9-21-21l0-330c0-12 10-21 21-21l28 0c11 0 21 9 21 21l0 330c0 12-10 21-21 21z m280 0c-12 0-22-9-22-21l0-144c0-11 10-21 22-21l27 0c12 0 21 10 21 21l0 144c0 12-9 21-21 21z m-140 0c-12 0-21-9-21-21l0-237c0-12 9-21 21-21l27 0c12 0 22 9 22 21l0 237c0 12-10 21-22 21z"/>
<glyph glyph-name="kanban-outline" unicode="&#53;" d="M55 482c-14 0-25-11-25-25l0-402c0-14 11-25 25-25l402 0c14 0 25 11 25 25l0 402c0 14-11 25-25 25z m0 30l402 0c30 0 55-25 55-55l0-402c0-30-25-55-55-55l-402 0c-30 0-55 25-55 55l0 402c0 30 25 55 55 55z m68-66l25 0c20 0 35-15 35-35l0-310c0-20-15-35-35-35l-25 0c-20 0-35 15-35 35l0 310c0 20 15 35 35 35z m0-30c-3 0-5-2-5-5l0-310c0-3 2-5 5-5l25 0c3 0 5 2 5 5l0 310c0 3-2 5-5 5z m263 30l25 0c20 0 35-15 35-35l0-135c0-19-15-35-35-35l-25 0c-20 0-36 16-36 35l0 135c0 20 16 35 36 35z m0-30c-3 0-5-2-5-5l0-135c0-3 2-5 5-5l25 0c3 0 5 2 5 5l0 135c0 3-2 5-5 5z m-132 30l26 0c19 0 35-15 35-35l0-223c0-19-16-35-35-35l-26 0c-19 0-35 16-35 35l0 223c0 20 16 35 35 35z m0-30c-3 0-5-2-5-5l0-223c0-2 2-5 5-5l26 0c3 0 5 3 5 5l0 223c0 3-2 5-5 5z"/>
<glyph glyph-name="left" unicode="&#54;" d="M203 256l143-152c22-24 22-62 0-86-23-24-59-24-81 0l-184 195c-23 24-23 62 0 86l184 195c22 24 58 24 81 0 22-24 22-62 0-86z"/>
<glyph glyph-name="less" unicode="&#55;" d="M43 235c-12 0-22 9-22 21 0 12 10 21 22 21l426 0c12 0 22-9 22-21 0-12-10-21-22-21z"/>
<glyph glyph-name="link" unicode="&#56;" d="M310 302c6-6 6-16 0-22-6-7-16-7-22-1-17 16-39 25-62 25-23 0-45-9-61-25l-103-99c-16-16-25-37-25-59 0-23 9-43 25-59 34-33 89-33 123 0l78 76c7 6 17 6 23 0 6-7 6-17 0-23l-79-76c-46-45-121-45-167 0-22 22-35 51-35 82 0 31 13 60 35 82l103 99c22 22 52 34 83 34 31 0 61-12 84-34z m-108-92c-6 6-6 16 0 22 6 7 16 7 22 1 17-16 39-25 62-25 23 0 45 9 61 25l103 99c16 16 25 37 25 59 0 23-9 43-25 59-34 33-89 33-123 0l-78-76c-7-6-17-6-23 0-6 7-6 17 0 23l79 76c46 45 121 45 167 0 22-22 35-51 35-82 0-31-13-60-35-82l-103-99c-22-22-52-34-83-34-31 0-61 12-84 34z"/>
<glyph glyph-name="link-out" unicode="&#57;" d="M450 469c10 0 19-9 19-19l0-159c0-11-9-20-19-20-11 0-20 9-20 20l0 111-204-204c-4-4-9-6-14-6-5 0-10 2-14 6-8 8-8 20 0 28l204 204-111 0c-11 0-20 9-20 20 0 10 9 19 20 19z m-85-199c11 0 19-8 19-19l0-189c0-11-8-19-19-19l-303 0c-11 0-19 8-19 19l0 303c0 11 8 19 19 19l189 0c11 0 19-8 19-19 0-10-8-19-19-19l-170 0 0-265 265 0 0 170c0 11 9 19 19 19z"/>
<glyph glyph-name="lock" unicode="&#33;" d="M133 299l0 68c0 65 55 118 123 118 68 0 123-53 123-118l0-68 26 0c12 0 22-10 22-22l0-234c0-12-10-22-22-22l-298 0c-12 0-22 10-22 22l0 234c0 12 10 22 22 22z m32 0l182 0 0 68c0 47-41 86-91 86-50 0-91-39-91-86z m70-144l0-27c0-12 9-21 21-21 12 0 21 9 21 21l0 27c13 7 22 21 22 37 0 24-19 43-43 43-24 0-43-19-43-43 0-16 9-30 22-37z"/>
<glyph glyph-name="lock-outline" unicode="&#34;" d="M133 299l0 60c0 73 55 132 123 132 68 0 123-59 123-132l0-60 26 0c21 0 38-17 38-38l0-213c0-21-17-37-38-37l-298 0c-21 0-38 16-38 37l0 213c0 21 17 38 38 38z m32 0l182 0 0 60c0 56-41 100-91 100-50 0-91-44-91-100z m-58-32c-3 0-6-3-6-6l0-213c0-3 3-5 6-5l298 0c3 0 6 2 6 5l0 213c0 3-3 6-6 6z m128-128c-13 7-22 21-22 37 0 24 19 43 43 43 24 0 43-19 43-43 0-16-9-30-22-37l0-27c0-12-9-21-21-21-12 0-21 9-21 21z"/>
<glyph glyph-name="login" unicode="&#35;" d="M168 149c8 0 16-7 16-16l0-48c0-14 12-26 26-26l235 0c15 0 27 12 27 26l0 342c0 14-12 26-27 26l-235 0c-14 0-26-12-26-26l0-48c0-9-8-16-16-16-9 0-16 7-16 16l0 48c0 32 26 58 58 58l235 0c32 0 59-26 59-58l0-342c0-32-27-58-59-58l-235 0c-32 0-58 26-58 58l0 48c0 9 7 16 16 16z m137 123l-47 47c-7 7-7 17 0 23 6 6 16 6 22 0l75-75c6-6 6-16 0-22l-75-75c-6-6-16-6-22 0-7 6-7 16 0 23l47 47-268 0c-9 0-16 7-16 16 0 9 7 16 16 16z"/>
<glyph glyph-name="logout" unicode="&#36;" d="M357 149c9 0 16-7 16-16l0-48c0-32-26-58-58-58l-235 0c-32 0-59 26-59 58l0 342c0 32 27 58 59 58l235 0c32 0 58-26 58-58l0-48c0-9-7-16-16-16-9 0-16 7-16 16l0 48c0 14-12 26-26 26l-235 0c-15 0-27-12-27-26l0-342c0-14 12-26 27-26l235 0c14 0 26 12 26 26l0 48c0 9 7 16 16 16z m76 123l-47 47c-7 7-7 17 0 23 6 6 16 6 22 0l75-75c6-6 6-16 0-22l-75-75c-6-6-16-6-22 0-7 6-7 16 0 23l47 47-268 0c-9 0-16 7-16 16 0 9 7 16 16 16z"/>
<glyph glyph-name="magnifier" unicode="&#37;" d="M207 164l-128-128c-8-9-22-9-30 0-8 8-8 21 0 30l128 128c-22 29-36 65-36 105 0 94 77 170 171 170 94 0 171-76 171-170 0-95-77-171-171-171-39 0-76 13-105 36z m105 7c71 0 128 57 128 128 0 70-57 128-128 128-71 0-128-58-128-128 0-71 57-128 128-128z"/>
<glyph glyph-name="menu" unicode="&#38;" d="M0 235l0 42c0 12 10 22 21 22l470 0c11 0 21-10 21-22l0-42c0-12-10-22-21-22l-470 0c-11 0-21 10-21 22z m0 170l0 43c0 12 10 21 21 21l470 0c11 0 21-9 21-21l0-43c0-11-10-21-21-21l-470 0c-11 0-21 10-21 21z m0-341l0 43c0 11 10 21 21 21l470 0c11 0 21-10 21-21l0-43c0-12-10-21-21-21l-470 0c-11 0-21 9-21 21z"/>
<glyph glyph-name="menu-outline" unicode="&#39;" d="M30 236c0-3 2-5 5-5l442 0c3 0 5 2 5 5l0 40c0 3-2 5-5 5l-442 0c-3 0-5-2-5-5z m-30 0l0 40c0 19 16 35 35 35l442 0c19 0 35-16 35-35l0-40c0-19-16-35-35-35l-442 0c-19 0-35 16-35 35z m30 159c0-3 2-5 5-5l442 0c3 0 5 2 5 5l0 40c0 2-2 5-5 5l-442 0c-3 0-5-3-5-5z m-30 0l0 40c0 19 16 34 35 34l442 0c19 0 35-15 35-34l0-40c0-19-16-35-35-35l-442 0c-19 0-35 16-35 35z m30-318c0-2 2-5 5-5l442 0c3 0 5 3 5 5l0 40c0 3-2 5-5 5l-442 0c-3 0-5-2-5-5z m-30 0l0 40c0 19 16 35 35 35l442 0c19 0 35-16 35-35l0-40c0-19-16-34-35-34l-442 0c-19 0-35 15-35 34z"/>
<glyph glyph-name="moon" unicode="&#40;" d="M292 453c-105 0-191-88-191-197 0-109 86-197 191-197 39 0 77 12 108 34-14-4-28-6-43-6-91 0-164 76-164 169 0 93 73 169 164 169 15 0 29-2 43-6-31 22-69 34-108 34z m111-69c-15 6-30 9-46 9-73 0-132-61-132-137 0-76 59-137 132-137 16 0 31 3 46 9 31 12 54-30 29-51-40-33-89-50-140-50-123 0-223 102-223 229 0 127 100 229 223 229 51 0 100-17 140-50 25-21 2-63-29-51z"/>
<glyph glyph-name="options" unicode="&#41;" d="M256 192c-35 0-64 29-64 64 0 35 29 64 64 64 35 0 64-29 64-64 0-35-29-64-64-64z m0 192c-35 0-64 29-64 64 0 35 29 64 64 64 35 0 64-29 64-64 0-35-29-64-64-64z m0-384c-35 0-64 29-64 64 0 35 29 64 64 64 35 0 64-29 64-64 0-35-29-64-64-64z"/>
<glyph glyph-name="pencil" unicode="&#42;" d="M63 37c-11-3-22 7-19 19l34 124c1 4 3 7 6 10l267 267c31 31 82 31 113 0 31-32 31-82 0-113l-267-267c-3-3-6-5-9-6z m87 55l-51 51-17-69z m197 316l-234-234 68-68 234 234z m23 22l68-68 3 4c19 19 19 49 0 68-18 19-49 19-68 0z"/>
<glyph glyph-name="phone" unicode="&#43;" d="M386 43c-18 0-40 4-63 13-52 19-108 58-159 108-50 51-89 107-108 159-18 47-18 85 0 103 2 3 5 5 8 8 16 17 34 36 58 35 17 0 33-11 49-31 49-61 27-83 2-108l-5-4c-4-4-12-23 61-97 24-23 45-41 61-52 10-6 28-16 36-9l5 5c25 25 46 47 107-2 20-16 31-32 31-49 1-24-18-42-35-58-3-3-5-6-8-8-9-9-23-13-40-13z"/>
<glyph glyph-name="phone-outline" unicode="&#44;" d="M319 184c41 42 71 46 129 0 24-19 36-39 37-61 1-27-10-43-40-71-5-5-6-6-8-7-12-13-30-18-51-18-20 0-44 5-69 14-54 20-112 60-164 112-52 52-92 110-112 164-20 52-20 97 4 120 2 2 3 4 7 8 28 30 44 41 71 40 22-1 42-13 61-37 44-55 42-87 6-123-2-2-3-3-6-6l-2-2c0-2 1-4 2-7 7-15 25-38 57-69 23-23 42-40 58-50 5-4 11-7 15-8 1-1 2-1 3-1z m67-125c14 0 23 3 29 8 2 2 2 3 8 8 23 22 31 33 30 46 0 12-8 24-25 38-44 35-56 33-86 3l-5-5c-14-15-32-8-56 7-17 11-38 29-63 54-64 64-80 100-61 119l5 5c3 3 4 4 5 6 24 24 25 38-8 80-14 17-26 25-37 25-14 1-25-7-47-30-4-4-6-6-8-8-12-12-12-45 4-87 19-49 56-103 105-152 49-49 103-86 152-105 22-8 42-12 58-12z"/>
<glyph glyph-name="picture" unicode="&#45;" d="M453 175l0 236-394 0 0-271 110 52 74-37 112 80z m-426 268l458 0 0-374-458 0z m176-203c-39 0-70 31-70 69 0 39 31 70 70 70 38 0 69-31 69-70 0-38-31-69-69-69z m0 32c20 0 37 17 37 37 0 21-17 38-37 38-21 0-38-17-38-38 0-20 17-37 38-37z"/>
<glyph glyph-name="picture-outline" unicode="&#46;" d="M453 156l-97 59-96-68 79-46 114 0z m0 37l0 218-394 0 0-251 92 50 79-45 125 89z m-178-92l-125 73-91-51 0-22z m-248 342l458 0 0-374-458 0z m176-203c-39 0-70 31-70 69 0 39 31 70 70 70 38 0 69-31 69-70 0-38-31-69-69-69z m0 32c20 0 37 17 37 37 0 21-17 38-37 38-21 0-38-17-38-38 0-20 17-37 38-37z"/>
<glyph glyph-name="planet" unicode="&#47;" d="M403 320c-27-36-61-74-99-112-38-38-76-72-112-99 20-8 41-13 64-13 88 0 160 72 160 160 0 23-5 44-13 64z m-18 30c-29 40-76 66-129 66-88 0-160-72-160-160 0-53 26-100 66-129 38 28 79 63 120 103 40 41 75 82 103 120z m-222-262c-69-47-125-67-145-46-22 21 2 83 55 157-6 18-9 37-9 57 0 106 86 192 192 192 20 0 39-3 57-9 74 53 136 77 157 55 21-20 1-76-46-145 15-27 24-59 24-93 0-106-86-192-192-192-34 0-66 9-93 24z m-29 20c-19 15-35 34-47 56-6-10-13-20-18-29-14-24-22-44-26-59-1-4-1-8-1-10 2 0 6 0 10 1 15 4 35 12 59 26 7 4 15 9 23 15z m214 317c22-12 41-28 56-47 6 8 11 16 15 23 14 24 22 44 26 59 1 4 1 8 1 10-2 0-6 0-10-1-15-4-35-12-59-26-9-5-19-12-29-18z"/>
<glyph glyph-name="plus" unicode="&#58;" d="M277 277l192 0c12 0 22-9 22-21 0-12-10-21-22-21l-192 0 0-192c0-12-9-22-21-22-12 0-21 10-21 22l0 192-192 0c-12 0-22 9-22 21 0 12 10 21 22 21l192 0 0 192c0 12 9 22 21 22 12 0 21-10 21-22z"/>
<glyph glyph-name="pulsarup-icon" unicode="&#59;" d="M168 44c-33-34-61-50-77-40-16 10-14 42 2 87-44 42-72 100-72 166 0 126 102 227 226 227 29 0 56-5 81-14 33 33 60 48 76 38 16-10 14-41-1-86 43-41 71-100 71-165 0-126-102-228-227-228-27 0-54 5-79 15z m79 42c94 0 170 77 170 171 0 94-76 171-170 171-93 0-169-77-169-171 0-94 76-171 169-171z m0 108c-36 0-64 29-64 64 0 36 28 64 64 64 35 0 64-28 64-64 0-35-29-64-64-64z"/>
<glyph glyph-name="pulsarup-logo" unicode="&#60;" d="M138 254l-13 0 0-27c0-1 0-2-1-3-1-1-1-1-3-1-1 0-2 0-3 1 0 1-1 2-1 3l0 64c0 1 1 2 1 3 1 0 2 1 3 1l17 0c2 0 5-1 7-2 3-1 5-2 7-4 2-2 3-4 4-7 1-2 2-5 2-7 0-3-1-6-2-8-1-3-2-5-4-7-2-2-4-3-7-4-2-1-5-2-7-2z m0 33l-13 0 0-25 13 0c1 0 3 1 4 1 2 1 3 2 4 3 1 1 2 2 3 4 0 1 1 3 1 5 0 1-1 3-1 4-1 2-2 3-3 4-1 1-2 2-4 3-1 0-3 1-4 1z m45-64c-2 0-5 0-7 1-2 1-4 2-6 4-1 2-3 4-4 6-1 2-1 5-1 7l0 24c0 1 0 2 1 3 1 1 2 1 3 1 1 0 2 0 3-1 1-1 1-2 1-3l0-24c0-1 0-3 1-4 0-1 1-2 2-3 1-1 2-2 3-2 1-1 3-1 4-1 1 0 3 0 4 1 1 0 2 1 3 2 1 1 2 2 2 3 1 1 1 3 1 4l0 24c0 1 1 2 1 3 1 1 2 1 3 1 1 0 2 0 3-1 1-1 1-2 1-3l0-24c0-2 0-5-1-7-1-2-2-4-4-6-2-2-4-3-6-4-2-1-4-1-7-1z m36 0c-2 0-3 0-3 1-1 1-2 2-2 3l0 64c0 1 1 2 2 3 0 0 1 1 3 1 1 0 2-1 2-1 1-1 2-2 2-3l0-64c0-1-1-2-2-3 0-1-1-1-2-1z m31 0c-2 0-4 0-6 1-2 0-4 1-5 2-2 1-3 3-4 4-1 2-1 4-1 6 0 1 0 2 1 3 1 1 2 1 3 1 1 0 2 0 3-1 1-1 1-2 1-3 0-2 1-3 2-4 2-1 4-1 6-1 2 0 3 0 4 1 2 1 2 2 2 4 0 2 0 3-1 3 0 1-1 2-2 2 0 1-1 1-1 1-1 0-1 0-2 1 0 0-1 0-2 0 0 1-1 1-2 1-1 0-2 1-4 2-1 0-2 1-3 2-2 1-2 2-3 3-1 2-1 3-1 6 0 1 0 3 1 5 1 2 2 3 3 4 1 1 3 2 4 3 2 0 4 1 6 1 1 0 3-1 5-1 2-1 3-2 4-3 1-1 2-2 3-4 1-2 1-4 1-5 0-2 0-2-1-3-1-1-2-1-3-1-1 0-2 0-3 1 0 1-1 1-1 3 0 1 0 2-1 3-1 1-3 2-4 2-2 0-3-1-4-2-2-1-2-2-2-3 0-2 1-3 2-4 1 0 3-1 4-1 0-1 1-1 2-1 0 0 1 0 2-1 1 0 2-1 4-1 1-1 2-2 3-3 2-1 2-2 3-4 1-2 1-3 1-6 0-2 0-4-1-5-1-2-2-4-3-5-1-1-3-2-5-2-2-1-3-1-5-1z m65 0c-2 0-3 0-3 1-1 1-2 2-2 3l0 1c-2-1-4-3-7-4-2-1-5-1-8-1-3 0-6 0-9 2-3 1-5 2-8 5-2 2-3 4-5 7-1 3-2 6-2 9 0 3 1 6 2 9 2 3 3 6 5 8 3 2 5 4 8 5 3 1 6 2 9 2 3 0 6-1 8-2 3-1 5-2 7-4l0 2c0 1 1 2 2 3 0 0 1 1 3 1 1 0 2-1 2-1 1-1 2-2 2-3l0-39c0-1-1-2-2-3 0-1-1-1-2-1z m-20 39c-2 0-4-1-6-2-2 0-3-2-5-3-1-1-2-3-3-5-1-2-1-4-1-6 0-2 0-4 1-6 1-2 2-3 3-5 2-1 3-2 5-3 2-1 4-1 6-1 2 0 4 0 6 1 2 1 4 2 5 3 1 2 2 3 3 5 1 2 1 4 1 6 0 2 0 4-1 6-1 2-2 4-3 5-1 1-3 3-5 3-2 1-4 2-6 2z m47 5c1 1 2 2 3 2 1 0 2 1 3 1 3 0 6-1 8-2 2-2 3-4 4-7 0 0 1-1 1-2-1 0-1-1-1-2 0 0-1-1-1-1-1 0-2 0-3 0 0 0-1 0-1 0-1 0-1 1-2 1 0 1 0 1 0 1-1 1-1 1-1 2-1 0-1 1-2 1 0 1-1 1-2 1-1 0-2-1-2-1-1 0-2-1-2-2-1 0-1-1-2-2 0 0 0-1 0-2l0-28c0-1-1-2-1-3-1-1-2-1-3-1-1 0-2 0-3 1-1 1-1 2-1 3l0 39c0 1 0 2 1 3 1 0 2 1 3 1 1 0 1-1 2-1 1-1 1-1 2-2z m55-44c-4 0-7 0-11 2-3 1-6 3-8 6-3 2-5 5-6 9-2 3-3 7-3 10l0 41c0 1 1 2 2 3 0 0 1 1 3 1 1 0 2-1 2-1 1-1 2-2 2-3l0-41c0-2 0-5 1-7 1-3 3-5 4-6 2-2 4-4 7-5 2-1 5-1 7-1 3 0 6 0 8 1 2 1 4 3 6 5 2 1 3 3 4 6 1 2 2 5 2 7l0 41c0 1 0 2 1 3 1 0 2 1 3 1 1 0 2-1 3-1 1-1 1-2 1-3l0-41c0-3-1-7-2-10-2-4-4-7-6-9-3-3-6-5-9-6-3-2-7-2-11-2z m67 0c-3 0-6 0-8 1-3 1-5 3-8 4l0-22c0-1 0-2-1-3-1-1-1-1-3-1-1 0-2 0-2 1-1 1-2 2-2 3l0 60c0 1 1 2 2 3 0 0 1 1 2 1 2 0 2-1 3-1 1-1 1-2 1-3l0-2c3 2 5 3 8 4 2 1 5 2 8 2 3 0 6-1 9-2 3-1 5-3 8-5 2-2 3-5 5-8 1-3 1-6 1-9 0-3 0-6-1-9-2-3-3-5-5-7-3-3-5-4-8-5-3-2-6-2-9-2z m0 39c-2 0-4-1-6-2-2 0-4-2-5-3-1-1-2-3-3-5-1-2-2-4-2-6 0-2 1-4 2-6 1-2 2-3 3-5 1-1 3-2 5-3 2-1 4-1 6-1 2 0 4 0 6 1 2 1 3 2 5 3 1 2 2 3 3 5 1 2 1 4 1 6 0 2 0 4-1 6-1 2-2 4-3 5-2 1-3 3-5 3-2 1-4 2-6 2z m40-22c-1 0-2 0-3 1-1 1-1 2-1 3l0 48c0 1 0 2 1 2 1 1 2 2 3 2 1 0 2-1 3-2 1 0 1-1 1-2l0-48c0-1 0-2-1-3-1-1-2-1-3-1z m4-16c-1-1-3-1-4-1-2 0-3 0-4 1-1 1-1 2-1 4 0 2 0 3 1 4 1 1 3 1 4 1 1 0 3 0 4-1 1-1 1-2 1-4 0-2 0-3-1-4z m-477-13c-7-8-13-11-16-9-4 2-3 9 0 19-9 9-15 21-15 35 0 27 22 49 48 49 7 0 12-1 18-3 7 7 13 10 16 8 3-2 3-9 0-18 9-9 15-22 15-36 0-27-22-48-49-48-6 0-11 1-17 3z m17 9c21 0 37 16 37 36 0 21-16 37-37 37-20 0-36-16-36-37 0-20 16-36 36-36z m0 23c-7 0-13 6-13 14 0 7 6 13 13 13 8 0 14-6 14-13 0-8-6-14-14-14z"/>
<glyph glyph-name="question-mark" unicode="&#61;" d="M207 171c0 14 1 26 2 37 2 12 5 22 9 31 4 9 9 18 15 26 7 8 15 16 24 24 8 6 15 12 21 18 6 6 12 12 17 18 4 6 8 12 10 19 3 6 4 13 4 21 0 17-4 31-13 39-9 9-21 13-39 13-6 0-13-1-20-3-6-2-12-5-17-9-5-5-9-10-12-17-3-7-5-15-5-24l-96 0c0 22 4 41 12 57 8 15 19 29 32 39 14 10 29 18 48 23 18 5 37 8 58 8 24 0 44-3 63-8 18-6 34-14 46-24 13-10 22-23 29-38 7-15 10-33 10-52 0-14-2-26-6-37-5-11-11-22-18-31-8-10-16-19-26-28-10-10-20-19-31-28-6-5-11-11-15-16-4-6-8-11-10-17-3-6-5-12-6-19-1-7-1-14-1-22z m-15-97c0 8 1 15 4 22 2 6 6 12 10 16 5 5 11 9 17 12 7 3 14 4 22 4 8 0 16-1 22-4 7-3 13-7 17-12 5-4 8-10 11-16 2-7 4-14 4-22 0-7-2-14-4-21-3-6-6-12-11-17-4-4-10-8-17-11-6-2-14-4-22-4-8 0-15 2-22 4-6 3-12 7-17 11-4 5-8 11-10 17-3 7-4 14-4 21z"/>
<glyph glyph-name="question-mark-outline" unicode="&#62;" d="M214 158c-9 0-16 7-16 16 0 14 1 26 2 37 2 12 4 22 8 32 4 10 9 19 16 28 6 8 13 16 22 24 7 6 12 11 18 17 5 5 9 9 12 14 3 4 6 9 7 13 2 5 3 9 3 14 0 13-3 21-7 26-5 4-11 7-22 7-4 0-8-1-12-2-3-1-6-3-9-6-3-2-5-5-7-9-1-5-2-10-3-17 0-8-7-15-16-15l-82 0c-9 0-16 7-16 16 0 22 4 42 12 58 8 17 18 31 32 42 13 11 29 19 46 25 17 5 36 7 55 7 22 0 41-2 59-8 17-5 32-14 45-25 13-11 22-25 29-41 7-16 10-34 10-54 0-15-2-28-7-40-4-11-10-22-17-32-7-10-15-19-24-28-8-9-17-17-27-26-4-4-8-8-11-12-3-4-5-8-6-13-2-4-3-8-4-13-1-6-1-12-1-19-1-9-8-16-16-16z m16 32l41 0c1 3 1 5 1 7 1 7 3 15 6 21 2 7 6 13 10 19 4 6 9 12 16 18 9 8 17 16 26 25 7 7 14 15 20 23 6 8 10 17 13 25 3 9 5 18 5 29 0 16-3 30-7 42-5 12-12 21-21 29-9 8-20 14-34 19-14 4-30 6-49 6-16 0-31-2-46-6-13-4-25-10-35-18-9-8-17-19-23-31-4-9-7-18-8-29l51 0c1 4 2 8 4 12 3 8 8 15 14 21 6 6 13 10 21 12 7 2 15 4 22 4 19 0 34-6 45-17 11-12 16-28 16-48 0-9-2-17-5-25-2-7-6-14-11-21-4-6-10-12-16-18-6-6-12-12-18-17-8-7-14-14-19-20-4-6-8-13-11-21-3-7-5-15-6-24-1-5-1-11-2-17z m-40-104c0 9 1 16 4 24 3 7 7 14 13 19 5 5 12 10 20 13 7 3 16 4 25 4 9 0 17-1 25-4 7-3 14-8 19-13 6-5 10-12 13-19 3-8 5-15 5-24 0-8-2-16-5-23-3-7-7-14-13-19-5-6-12-10-20-13-7-3-15-4-24-4-9 0-18 1-25 4-8 3-15 7-20 13-6 5-10 12-13 19-3 7-4 15-4 23z m32 0c0-4 0-8 2-11 1-3 3-6 5-8 3-3 6-5 9-6 4-2 8-2 14-2 5 0 9 0 13 2 4 1 7 3 9 6 2 2 4 5 6 8 1 3 2 7 2 11 0 5-1 8-2 12-2 3-4 6-6 8-3 3-6 5-9 6-4 2-8 2-13 2-5 0-10 0-13-2-4-1-7-3-10-6-2-2-4-5-5-8-2-4-2-7-2-12z"/>
<glyph glyph-name="right" unicode="&#63;" d="M309 256l-143 152c-22 24-22 62 0 86 23 24 59 24 81 0l184-195c23-24 23-62 0-86l-184-195c-22-24-58-24-81 0-22 24-22 62 0 86z"/>
<glyph glyph-name="spacehip-outline" unicode="&#64;" d="M232 133c10 4 21-2 22-13l10-87c44 2 80 20 111 54l-12 117c0 5 2 10 5 13 78 71 105 157 83 261-107 5-188-37-243-126-3-4-7-7-12-7l-118-9c-28-36-39-76-34-118l88 5c10 1 18-9 16-19-3-13-6-26-9-40l57-47c12 5 25 10 36 16z m-34-49c-5-2-11-1-16 3l-70 59c-5 4-7 10-6 15 2 10 4 20 6 29l-80-5c-8 0-15 5-17 13-12 60 3 114 43 163 3 3 7 5 11 5l117 10c63 97 157 142 278 133 7 0 13-5 14-12 30-118 2-218-83-297l11-117c1-4-1-8-3-11-41-49-92-72-153-71-8 0-14 6-15 14l-9 80c-9-3-18-7-28-11z m121 237c-25 21-28 57-7 81 20 24 56 28 81 7 24-20 27-56 7-81-21-24-57-27-81-7z m20 24c11-9 27-8 37 3 9 11 7 28-4 37-11 10-27 8-36-3-10-11-8-28 3-37z"/>
<glyph glyph-name="spaceship" unicode="&#91;" d="M181 100c-5-2-11-1-15 2l-69 58c-4 3-6 9-5 14 2 10 4 19 6 28l-78-5c-8 0-15 5-16 13-12 57 2 110 42 157 2 3 6 5 10 6l113 9c62 94 152 137 270 129 7 0 12-5 14-11 28-115 1-212-81-289l11-113c0-4-1-8-4-11-39-47-89-70-148-68-7 0-14 6-14 13l-9 78c-9-3-18-7-27-10z m135 252c19-16 47-14 63 5 16 19 13 47-5 63-19 16-47 13-63-5-16-19-14-47 5-63z"/>
<glyph glyph-name="star" unicode="&#93;" d="M256 89l-120-66c-11-7-25-2-31 10-2 4-3 10-2 15l23 140-98 99c-9 9-9 24 0 34 3 4 8 6 13 7l134 20 60 128c6 12 20 17 31 11 5-3 8-6 11-11l60-128 134-20c13-2 21-14 19-27 0-5-3-10-6-14l-98-99 23-140c3-13-6-26-18-28-5-1-10 0-15 3z"/>
<glyph glyph-name="star-outline" unicode="&#94;" d="M355 183c-2 10 1 20 9 27l86 89-118 18c-11 1-20 8-24 18l-52 109-52-109c-4-10-13-17-24-18l-118-18 86-89c8-7 11-17 9-27l-20-123 104 57c9 5 21 5 30 0l104-57z m-99-94l-120-66c-11-7-25-2-31 10-2 4-3 10-2 15l23 140-98 99c-9 9-9 24 0 34 3 4 8 6 13 7l134 20 60 128c6 12 20 17 31 11 5-3 8-6 11-11l60-128 134-20c13-2 21-14 19-27 0-5-3-10-6-14l-98-99 23-140c3-13-6-26-18-28-5-1-10 0-15 3z"/>
<glyph glyph-name="street-light" unicode="&#95;" d="M237 512l38 0c60 0 109-55 109-123l0-266c0-68-49-123-109-123l-38 0c-60 0-109 55-109 123l0 266c0 68 49 123 109 123z m19-149c29 0 53 24 53 53 0 29-24 53-53 53-29 0-53-24-53-53 0-29 24-53 53-53z m0-160c29 0 53 24 53 53 0 30-24 54-53 54-29 0-53-24-53-54 0-29 24-53 53-53z m0-160c29 0 53 24 53 53 0 29-24 53-53 53-30 0-53-24-53-53 0-29 23-53 53-53z"/>
<glyph glyph-name="street-light-outline" unicode="&#96;" d="M235 512l42 0c68 0 123-55 123-123l0-266c0-68-55-123-123-123l-42 0c-68 0-123 55-123 123l0 266c0 68 55 123 123 123z m0-32c-50 0-91-41-91-91l0-266c0-50 41-91 91-91l42 0c50 0 91 41 91 91l0 266c0 50-41 91-91 91z m21-288c-35 0-64 29-64 64 0 35 29 64 64 64 35 0 64-29 64-64 0-35-29-64-64-64z m0 32c18 0 32 14 32 32 0 18-14 32-32 32-18 0-32-14-32-32 0-18 14-32 32-32z m0-181c-35 0-64 28-64 64 0 35 29 64 64 64 35 0 64-29 64-64 0-36-29-64-64-64z m0 32c18 0 32 14 32 32 0 17-14 32-32 32-18 0-32-15-32-32 0-18 14-32 32-32z m0 266c-35 0-64 29-64 64 0 36 29 64 64 64 35 0 64-28 64-64 0-35-29-64-64-64z m0 32c18 0 32 15 32 32 0 18-14 32-32 32-18 0-32-14-32-32 0-17 14-32 32-32z"/>
<glyph glyph-name="tag" unicode="&#123;" d="M6 306c-4 11 3 23 15 26l373 100c8 2 17-1 23-8l65-93c3-4 4-9 4-14l-10-114c-1-9-7-16-16-18l-373-100c-12-3-23 3-26 15z m368-56c23 6 36 30 30 52-6 23-29 37-52 30-23-6-36-29-30-52 6-23 29-36 52-30z"/>
<glyph glyph-name="tag-add" unicode="&#124;" d="M22 209c-3 10 3 20 13 23l328 87c7 2 15-1 20-7l57-81c3-4 4-9 3-13l-8-99c-1-8-7-15-14-17l-328-87c-10-3-20 3-23 13z m352-43c20 12 27 38 16 58-12 21-38 28-59 16-20-12-27-38-15-58 11-21 38-28 58-16z m72 280l46 0c11 0 20-8 20-19 0-11-9-20-20-20l-46 0 0-46c0-11-8-20-19-20-11 0-20 9-20 20l0 46-46 0c-11 0-20 9-20 20 0 11 9 19 20 19l46 0 0 46c0 11 9 20 20 20 11 0 19-9 19-20z"/>
<glyph glyph-name="tag-add-outline" unicode="&#125;" d="M7 209c-5 18 6 37 24 42l327 88c15 4 29-2 38-14l57-81c5-7 7-15 6-23l-9-100c-1-14-11-26-25-30l-327-88c-19-5-38 6-43 25z m30 8l49-181c0-1 2-2 3-2l328 88c1 0 1 1 2 2l9 99c0 1-1 2-1 2l-57 82c-1 1-2 1-3 1l-328-88c-1 0-2-2-2-3z m308-71c-28-16-64-6-80 22-16 28-6 64 22 80 28 16 64 7 80-21 16-29 6-64-22-81z m-52 38c7-13 24-17 36-10 13 7 18 24 10 37-7 12-24 17-36 9-13-7-17-23-10-36z m153 262l46 0c11 0 20-8 20-19 0-11-9-20-20-20l-46 0 0-46c0-11-8-20-19-20-11 0-20 9-20 20l0 46-46 0c-11 0-20 9-20 20 0 11 9 19 20 19l46 0 0 46c0 11 9 20 20 20 11 0 19-9 19-20z"/>
<glyph glyph-name="tag-outline" unicode="&#126;" d="M1 303c-6 20 6 40 26 45l373 100c15 4 31-1 40-14l66-93c5-7 7-16 6-25l-10-113c-1-16-12-29-27-33l-373-100c-20-5-41 7-46 27z m30 8l56-206c0-3 3-5 6-4l373 100c2 1 4 3 4 5l10 113c0 1 0 3-1 4l-65 92c-1 2-4 3-6 3l-373-100c-3-1-4-4-4-7z m358-76c-32-8-64 11-72 42-9 31 10 63 41 72 31 8 64-10 72-42 8-31-10-63-41-72z m-9 31c15 4 23 19 19 33-4 14-18 23-33 19-14-4-22-19-18-33 3-14 18-23 32-19z"/>
<glyph glyph-name="team" unicode="&#92;" d="M384 363c-35 0-64 28-64 64 0 35 29 64 64 64 35 0 64-29 64-64 0-36-29-64-64-64z m-256 0c-35 0-64 28-64 64 0 35 29 64 64 64 35 0 64-29 64-64 0-36-29-64-64-64z m0-43c36 0 107-25 107-75l0-202-214 0 0 202c0 50 71 75 107 75z m256 0c36 0 107-25 107-75l0-202-214 0 0 202c0 50 71 75 107 75z"/>
<glyph glyph-name="team-add" unicode="&#57344;" d="M277 235c-35 0-64 28-64 64 0 35 29 64 64 64 36 0 64-29 64-64 0-36-28-64-64-64z m-192 0c-35 0-64 28-64 64 0 35 29 64 64 64 36 0 64-29 64-64 0-36-28-64-64-64z m0-22c29 0 86-19 86-57l0-156-171 0 0 156c0 38 57 57 85 57z m192 0c29 0 86-19 86-57l0-156-171 0 0 156c0 38 57 57 85 57z m169 233l46 0c11 0 20-8 20-19 0-11-9-20-20-20l-46 0 0-46c0-11-8-20-19-20-11 0-20 9-20 20l0 46-46 0c-11 0-20 9-20 20 0 11 9 19 20 19l46 0 0 46c0 11 9 20 20 20 11 0 19-9 19-20z"/>
<glyph glyph-name="team-add-outline" unicode="&#57345;" d="M446 446l46 0c11 0 20-8 20-19 0-11-9-20-20-20l-46 0 0-46c0-11-8-20-19-20-11 0-20 9-20 20l0 46-46 0c-11 0-20 9-20 20 0 11 9 19 20 19l46 0 0 46c0 11 9 20 20 20 11 0 19-9 19-20z m-137-174c21 0 38 17 38 37 0 21-17 38-38 38-20 0-37-17-37-38 0-20 17-37 37-37z m0-32c-38 0-69 31-69 69 0 39 31 70 69 70 39 0 70-31 70-70 0-38-31-69-70-69z m-213 32c21 0 37 17 37 37 0 21-16 38-37 38-21 0-37-17-37-38 0-20 16-37 37-37z m0-32c-38 0-69 31-69 69 0 39 31 70 69 70 38 0 69-31 69-70 0-38-31-69-69-69z m59-203l0 125c0 18-32 35-59 35-27 0-59-17-59-35l0-125z m-59 192c42 0 91-27 91-67l0-157-182 0 0 157c0 40 49 67 91 67z m272-67c0 18-32 35-59 35-26 0-58-17-58-35l0-125 117 0z m-59 67c42 0 91-27 91-67l0-157-181 0 0 157c0 40 49 67 90 67z"/>
<glyph glyph-name="team-inactive" unicode="&#57346;" d="M277 235c-35 0-64 28-64 64 0 35 29 64 64 64 36 0 64-29 64-64 0-36-28-64-64-64z m-192 0c-35 0-64 28-64 64 0 35 29 64 64 64 36 0 64-29 64-64 0-36-28-64-64-64z m0-22c29 0 86-19 86-57l0-156-171 0 0 156c0 38 57 57 85 57z m192 0c29 0 86-19 86-57l0-156-171 0 0 156c0 38 57 57 85 57z m149 241l31 34c7 8 20 8 28 1 8-7 8-20 1-28l-31-33 33-32c8-7 8-20 1-28-7-7-20-8-28-1l-33 32-32-34c-7-8-20-8-28-1-7 8-8 20-1 28l32 34-34 31c-8 7-8 20-1 28 8 8 20 8 28 1z"/>
<glyph glyph-name="team-inactive-outline" unicode="&#57347;" d="M427 455l32 32c8 8 20 8 28 0 8-8 8-20 0-28l-32-32 32-33c8-8 8-20 0-28-8-7-20-7-28 0l-32 33-33-33c-8-7-20-7-28 0-7 8-7 20 0 28l33 33-33 32c-7 8-7 20 0 28 8 8 20 8 28 0z m-118-183c21 0 38 17 38 37 0 21-17 38-38 38-20 0-37-17-37-38 0-20 17-37 37-37z m0-32c-38 0-69 31-69 69 0 39 31 70 69 70 39 0 70-31 70-70 0-38-31-69-70-69z m-213 32c21 0 37 17 37 37 0 21-16 38-37 38-21 0-37-17-37-38 0-20 16-37 37-37z m0-32c-38 0-69 31-69 69 0 39 31 70 69 70 38 0 69-31 69-70 0-38-31-69-69-69z m59-203l0 125c0 18-32 35-59 35-27 0-59-17-59-35l0-125z m-59 192c42 0 91-27 91-67l0-157-182 0 0 157c0 40 49 67 91 67z m272-67c0 18-32 35-59 35-26 0-58-17-58-35l0-125 117 0z m-59 67c42 0 91-27 91-67l0-157-181 0 0 157c0 40 49 67 90 67z"/>
<glyph glyph-name="team-outline" unicode="&#57348;" d="M384 331c-44 0-80 35-80 80 0 44 36 80 80 80 44 0 80-36 80-80 0-45-36-80-80-80z m0 32c27 0 48 21 48 48 0 26-21 48-48 48-27 0-48-22-48-48 0-27 21-48 48-48z m-256-32c-44 0-80 35-80 80 0 44 36 80 80 80 44 0 80-36 80-80 0-45-36-80-80-80z m0 32c27 0 48 21 48 48 0 26-21 48-48 48-27 0-48-22-48-48 0-27 21-48 48-48z m75-304l0 170c0 20-42 43-75 43-33 0-75-23-75-43l0-170z m-75 245c36 0 107-25 107-75l0-202-214 0 0 202c0 50 71 75 107 75z m331-245l0 170c0 20-42 43-75 43-33 0-75-23-75-43l0-170z m-75 245c36 0 107-25 107-75l0-202-214 0 0 202c0 50 71 75 107 75z"/>
<glyph glyph-name="top" unicode="&#57349;" d="M256 267l-152-144c-24-22-62-22-86 0-24 23-24 59 0 82l195 184c24 22 62 22 86 0l195-184c24-23 24-59 0-82-24-22-62-22-86 0z"/>
<glyph glyph-name="trophy" unicode="&#57350;" d="M398 245c-18-48-61-84-115-93l0-88 122 0c36 0 64-29 64-64l-426 0c0 35 28 64 64 64l122 0 0 88c-54 9-97 45-115 93-66 26-114 98-114 182l0 21 107 0 0 44c0 11 9 20 21 20l256 0c12 0 21-9 21-20l0-44 107 0 0-21c0-84-48-156-114-182z m7 52c33 23 57 62 63 108l-63 0z m-298 0l0 108-63 0c6-46 30-85 63-108z"/>
<glyph glyph-name="trophy-outline" unicode="&#57351;" d="M272 32l176 0c9 0 16-7 16-16 0-9-7-16-16-16l-405 0c-9 0-16 7-16 16 0 9 7 16 16 16l197 0 0 76c-72 8-129 71-133 148-60 6-107 90-107 192l0 21 107 0 0 20c0 13 9 23 21 23l256 0c12 0 21-10 21-23l0-20 107 0 0-21c0-102-47-186-107-192-4-77-61-140-133-148z m-133 448l0-216c0-69 53-125 117-125 64 0 117 56 117 125l0 216z m341-43l-64 0 0-145c33 16 61 73 64 145z m-448 0c3-72 31-129 64-145l0 145z"/>
<glyph glyph-name="upload" unicode="&#57352;" d="M240 308l-58-58c-6-6-16-6-23 0-6 6-6 16 0 23l86 85c6 6 16 6 22 0l86-85c6-7 6-17 0-23-7-6-17-6-23 0l-58 58 0-256c0-8-7-16-16-16-9 0-16 8-16 16z m-48-121c0-9-7-16-16-16l-67 0c-48 0-88 40-88 89 0 50 40 90 88 90 2 0 4-1 6-1 12 35 44 61 82 61 6 0 11-1 16-2 20 36 58 61 102 61 65 0 117-53 117-119 0-2 0-4 0-5 34-13 59-46 59-85 0-49-40-89-88-89l-67 0c-9 0-16 7-16 16 0 9 7 16 16 16l67 0c31 0 56 25 56 57 0 25-16 46-38 54-13 5-22 18-21 32 0 2 0 3 0 5-1 48-39 86-85 86-31 0-59-17-74-44-7-12-20-19-34-16-4 0-7 1-10 1-23 0-44-16-52-39-5-14-18-23-32-22-3 1-3 1-4 1l-1 0c-30-1-55-26-55-58 0-32 26-57 56-57l67 0c9 0 16-7 16-16z"/>
<glyph glyph-name="user" unicode="&#57353;" d="M256 512c71 0 128-57 128-128 0-71-57-128-128-128-71 0-128 57-128 128 0 71 57 128 128 128z m235-512l-470 0 0 74c0 76 157 118 235 118 78 0 235-42 235-118z"/>
<glyph glyph-name="user-add" unicode="&#57354;" d="M446 446l46 0c11 0 20-8 20-19 0-11-9-20-20-20l-46 0 0-46c0-11-8-20-19-20-11 0-20 9-20 20l0 46-46 0c-11 0-20 9-20 20 0 11 9 19 20 19l46 0 0 46c0 11 9 20 20 20 11 0 19-9 19-20z m-243 2c65 0 117-52 117-117 0-65-52-118-117-118-65 0-118 53-118 118 0 65 53 117 118 117z m202-448l-405 0 0 74c0 76 135 118 203 118 67 0 202-42 202-118z"/>
<glyph glyph-name="user-add-outline" unicode="&#57355;" d="M213 432c-38 0-69-31-69-69 0-39 31-70 69-70 39 0 70 31 70 70 0 38-31 69-70 69z m0 32c56 0 102-45 102-101 0-56-46-102-102-102-56 0-101 46-101 102 0 56 45 101 101 101z m176-368c0 53-97 101-176 101-78 0-176-48-176-101l0-59 352 0z m-384-91l0 91c0 76 115 133 208 133 94 0 208-57 208-133l0-91z m441 441l46 0c11 0 20-8 20-19 0-11-9-20-20-20l-46 0 0-46c0-11-8-20-19-20-11 0-20 9-20 20l0 46-46 0c-11 0-20 9-20 20 0 11 9 19 20 19l46 0 0 46c0 11 9 20 20 20 11 0 19-9 19-20z"/>
<glyph glyph-name="user-inactive" unicode="&#57356;" d="M427 455l32 32c8 8 20 8 28 0 8-8 8-20 0-28l-32-32 32-33c8-8 8-20 0-28-8-7-20-7-28 0l-32 33-33-33c-8-7-20-7-28 0-7 8-7 20 0 28l33 33-33 32c-7 8-7 20 0 28 8 8 20 8 28 0z m-224-7c65 0 117-52 117-117 0-65-52-118-117-118-65 0-118 53-118 118 0 65 53 117 118 117z m202-448l-405 0 0 74c0 76 135 118 203 118 67 0 202-42 202-118z"/>
<glyph glyph-name="user-inactive-outline" unicode="&#57357;" d="M213 432c-38 0-69-31-69-69 0-39 31-70 69-70 39 0 70 31 70 70 0 38-31 69-70 69z m0 32c56 0 102-45 102-101 0-56-46-102-102-102-56 0-101 46-101 102 0 56 45 101 101 101z m176-368c0 53-97 101-176 101-78 0-176-48-176-101l0-59 352 0z m-384-91l0 91c0 76 115 133 208 133 94 0 208-57 208-133l0-91z m422 450l32 32c8 8 20 8 28 0 8-8 8-20 0-28l-32-32 32-33c8-8 8-20 0-28-8-7-20-7-28 0l-32 33-33-33c-8-7-20-7-28 0-7 8-7 20 0 28l33 33-33 32c-7 8-7 20 0 28 8 8 20 8 28 0z"/>
<glyph glyph-name="user-outline" unicode="&#57358;" d="M256 480c-53 0-96-43-96-96 0-53 43-96 96-96 53 0 96 43 96 96 0 53-43 96-96 96z m0 32c71 0 128-57 128-128 0-71-57-128-128-128-71 0-128 57-128 128 0 71 57 128 128 128z m203-416c0 39-114 85-203 85-89 0-203-46-203-85l0-64 406 0z m32-96l-470 0 0 96c0 76 157 117 235 117 78 0 235-41 235-117z"/>
</font>
</defs>
</svg>
